<svg width="460" height="460" viewBox="0 0 460 460" fill="none" xmlns="http://www.w3.org/2000/svg">
<circle cx="230" cy="230" r="230" fill="#80CBC4"/>
<mask id="path-2-inside-1" fill="white">
<path d="M113.379 140.81C115.413 137.884 117.152 137 120.876 137C124.885 137 126.577 138.02 130.646 142.888C133.353 146.127 136.938 151.712 138.613 155.301L141.658 161.825L148.931 161.882C152.932 161.913 159.478 162.969 163.478 164.228C167.479 165.488 171.784 167.48 172.508 168.038C174.901 168.866 174.555 168.866 176.633 167.48C178.365 166.441 179.75 165.422 180.79 164.765C182.521 163.033 184.19 162.683 186.221 160.207C188.252 157.73 192.772 153.362 196.265 150.501C199.78 147.621 204.164 145.283 206.08 145.266C208.586 145.243 210.731 146.874 213.835 151.162C216.195 154.422 219.163 160.207 220.432 164.017C221.7 167.827 222.731 174.529 222.722 178.911L223.045 182.721L224.084 186.184L227.974 192.073C230.871 194.93 237.262 199.512 242.175 202.253C247.088 204.995 253.168 208.548 255.263 209.045C257.359 209.542 263.212 212.499 269.118 215.279C275.023 218.06 282.694 222.58 286.089 225.324C289.485 228.068 295.382 232.19 298.844 235.924C302.307 239.659 305.798 243.399 306.602 244.237C307.407 245.075 310.524 246.634 313.529 247.701C318.356 249.416 319.6 249.802 324.189 247.782C327.999 246.823 326.96 246.396 331.809 245.045C337.125 243.565 340.156 243.78 347.395 242.261C354.634 240.741 363.83 239.504 367.83 239.511C373.71 239.523 375.369 240.056 376.489 242.296C377.251 243.82 377.875 246.938 377.875 249.224C377.875 252.62 376.103 254.964 368.19 262.039L358.788 272.374L358.492 284.9C358.485 292.71 358.132 297.023 357.44 299.619C355.701 303.894 356.054 303.257 354.403 306.893C353.305 310.608 351.278 315.675 349.901 318.151C347.754 322.008 346.65 322.646 342.2 322.598C337.691 322.549 335.745 321.312 327.479 313.246C322.24 308.133 315.849 300.677 313.278 296.676C310.632 292.559 306.244 289.495 304.087 288.653C301.991 287.835 298.185 288.653 295.081 288.653C280.894 288.653 283.215 289.347 265.308 288.653C251.807 286.632 228.651 286.587 217.733 283.458C210.875 281.492 196.757 278.427 192.566 277.28C188.375 276.132 179.307 273.21 172.83 272.042C166.353 270.874 158.56 269.286 155.512 268.513C152.464 267.74 148.723 266.575 147.199 265.924C145.675 265.273 140.688 263.638 136.116 262.29C131.544 260.941 125.309 258.723 122.261 257.359C119.213 255.996 110.808 251.61 104.713 246.666C98.6166 241.722 93.0979 236.737 90.05 234.136C85.8794 230.576 82.5248 224.91 79.6525 217.205C76.9807 210.038 75.8379 204.369 75.8425 198.307L76.8883 193.112L78.2737 189.302L85.2009 181.182C90.3444 176.525 96.2844 172.676 97.6699 171.483C99.4017 170.251 101.963 167.526 103.627 163.67C105.189 160.051 107.426 154.284 108.599 150.855C109.771 147.426 111.923 142.906 113.379 140.81Z"/>
</mask>
<path d="M113.379 140.81C115.413 137.884 117.152 137 120.876 137C124.885 137 126.577 138.02 130.646 142.888C133.353 146.127 136.938 151.712 138.613 155.301L141.658 161.825L148.931 161.882C152.932 161.913 159.478 162.969 163.478 164.228C167.479 165.488 171.784 167.48 172.508 168.038C174.901 168.866 174.555 168.866 176.633 167.48C178.365 166.441 179.75 165.422 180.79 164.765C182.521 163.033 184.19 162.683 186.221 160.207C188.252 157.73 192.772 153.362 196.265 150.501C199.78 147.621 204.164 145.283 206.08 145.266C208.586 145.243 210.731 146.874 213.835 151.162C216.195 154.422 219.163 160.207 220.432 164.017C221.7 167.827 222.731 174.529 222.722 178.911L223.045 182.721L224.084 186.184L227.974 192.073C230.871 194.93 237.262 199.512 242.175 202.253C247.088 204.995 253.168 208.548 255.263 209.045C257.359 209.542 263.212 212.499 269.118 215.279C275.023 218.06 282.694 222.58 286.089 225.324C289.485 228.068 295.382 232.19 298.844 235.924C302.307 239.659 305.798 243.399 306.602 244.237C307.407 245.075 310.524 246.634 313.529 247.701C318.356 249.416 319.6 249.802 324.189 247.782C327.999 246.823 326.96 246.396 331.809 245.045C337.125 243.565 340.156 243.78 347.395 242.261C354.634 240.741 363.83 239.504 367.83 239.511C373.71 239.523 375.369 240.056 376.489 242.296C377.251 243.82 377.875 246.938 377.875 249.224C377.875 252.62 376.103 254.964 368.19 262.039L358.788 272.374L358.492 284.9C358.485 292.71 358.132 297.023 357.44 299.619C355.701 303.894 356.054 303.257 354.403 306.893C353.305 310.608 351.278 315.675 349.901 318.151C347.754 322.008 346.65 322.646 342.2 322.598C337.691 322.549 335.745 321.312 327.479 313.246C322.24 308.133 315.849 300.677 313.278 296.676C310.632 292.559 306.244 289.495 304.087 288.653C301.991 287.835 298.185 288.653 295.081 288.653C280.894 288.653 283.215 289.347 265.308 288.653C251.807 286.632 228.651 286.587 217.733 283.458C210.875 281.492 196.757 278.427 192.566 277.28C188.375 276.132 179.307 273.21 172.83 272.042C166.353 270.874 158.56 269.286 155.512 268.513C152.464 267.74 148.723 266.575 147.199 265.924C145.675 265.273 140.688 263.638 136.116 262.29C131.544 260.941 125.309 258.723 122.261 257.359C119.213 255.996 110.808 251.61 104.713 246.666C98.6166 241.722 93.0979 236.737 90.05 234.136C85.8794 230.576 82.5248 224.91 79.6525 217.205C76.9807 210.038 75.8379 204.369 75.8425 198.307L76.8883 193.112L78.2737 189.302L85.2009 181.182C90.3444 176.525 96.2844 172.676 97.6699 171.483C99.4017 170.251 101.963 167.526 103.627 163.67C105.189 160.051 107.426 154.284 108.599 150.855C109.771 147.426 111.923 142.906 113.379 140.81Z" fill="white"/>
<path d="M122.261 144.336L122.09 144.806L122.261 144.336ZM127.412 150.273L127.001 150.558L127.412 150.273ZM132.788 160.553L133.262 160.395L132.788 160.553ZM135.95 167.196L136.328 166.869L135.95 167.196ZM145.814 168.934L145.811 168.434L145.814 168.934ZM163.825 172.306L163.658 172.778L163.825 172.306ZM176.294 175.776L176.301 175.276L176.294 175.776ZM258.034 218.397L257.844 218.859L258.034 218.397ZM277.084 228.441L277.336 228.01L277.084 228.441ZM318.647 256.174L318.649 255.674H318.649L318.647 256.174ZM325.921 255.056L325.762 254.582L325.642 254.622L325.555 254.714L325.921 255.056ZM338.39 251.23L338.301 250.738L338.39 251.23ZM358.788 247.495L358.879 247.987L358.788 247.495ZM369.871 247.584L369.512 247.932L369.871 247.584ZM367.35 253.126L367.678 253.504L367.693 253.491L367.706 253.478L367.35 253.126ZM357.357 261.693L357.045 261.303L357.006 261.333L356.974 261.371L357.357 261.693ZM350.859 271.391L350.374 271.27L350.354 271.347L350.36 271.427L350.859 271.391ZM351.653 282.475H352.153V282.457L352.152 282.439L351.653 282.475ZM347.027 305.041L346.565 304.849L347.027 305.041ZM333.541 309.071L333.211 309.447L333.541 309.071ZM320.236 293.463L319.814 293.731L320.236 293.463ZM303.401 281.38L303.448 280.882L303.425 280.88H303.401V281.38ZM271.882 281.38L271.822 281.876L271.872 281.882L271.922 281.878L271.882 281.38ZM224.777 277.28L224.878 276.79L224.777 277.28ZM204.002 272.048L203.867 272.529L204.002 272.048ZM174.908 265.225L174.81 265.715L174.908 265.225ZM152.048 259.925L152.2 259.449L152.048 259.925ZM107.714 238.582L108.06 238.221L108.042 238.204L108.022 238.188L107.714 238.582ZM98.7023 231.559L99.0558 231.205L98.9985 231.148L98.9259 231.112L98.7023 231.559ZM93.8532 226.653L94.2043 226.297L93.8532 226.653ZM90.05 221.458L89.593 221.661L89.6055 221.689L89.6212 221.715L90.05 221.458ZM86.2588 213.548L85.8078 213.764L86.2588 213.548ZM83.4624 199.346L82.9683 199.27L82.9627 199.307L82.9625 199.343L83.4624 199.346ZM86.2588 190.687L85.8841 190.356L85.8509 190.394L85.8258 190.437L86.2588 190.687ZM95.9381 182.172L96.1873 182.605L95.9381 182.172ZM106.018 175.26L106.358 175.626L106.41 175.578L106.446 175.518L106.018 175.26ZM114.837 154.318L114.353 154.192L114.837 154.318ZM118.58 146.303L118.947 146.644L118.58 146.303ZM125.725 176.102L125.611 176.589L125.725 176.102ZM121.981 177.437L121.613 177.1V177.1L121.981 177.437ZM119.557 183.76L120.05 183.843L119.557 183.76ZM120.942 189.302L120.724 189.752L120.942 189.302ZM125.151 188.263L124.796 187.91L125.151 188.263ZM127.509 181.385L128.009 181.416L127.509 181.385ZM183.114 190.687L182.653 190.493L183.114 190.687ZM181.382 199.346L181.878 199.282V199.282L181.382 199.346ZM189.247 196.576L189.723 196.729L189.247 196.576ZM190.355 187.916L189.886 188.09L190.355 187.916ZM131.613 218.155L131.162 217.94L131.613 218.155ZM134.442 223.351L134.749 222.956L134.442 223.351ZM145.526 230.374L145.283 230.811L145.526 230.374ZM155.166 233.492L154.993 233.022L155.166 233.492ZM142.004 218.621L142.289 218.211L142.004 218.621ZM353.616 266.139L353.98 266.483L353.99 266.472L353.999 266.461L353.616 266.139ZM351.653 268.218L351.29 267.874L351.2 267.969L351.168 268.096L351.653 268.218ZM122.09 144.806C122.116 144.815 122.189 144.853 122.316 144.948C122.437 145.039 122.583 145.165 122.753 145.325C123.094 145.646 123.508 146.086 123.968 146.617C124.888 147.677 125.974 149.077 127.001 150.558L127.823 149.988C126.778 148.482 125.67 147.053 124.724 145.961C124.251 145.416 123.813 144.949 123.439 144.597C123.253 144.422 123.077 144.269 122.917 144.149C122.764 144.034 122.598 143.927 122.433 143.867L122.09 144.806ZM127.001 150.558C129.052 153.517 131.446 158.1 132.313 160.711L133.262 160.395C132.358 157.672 129.913 153.004 127.823 149.988L127.001 150.558ZM132.313 160.711C132.763 162.065 133.348 163.498 133.93 164.72C134.504 165.926 135.097 166.974 135.572 167.523L136.328 166.869C135.95 166.431 135.405 165.492 134.833 164.29C134.268 163.103 133.698 161.708 133.262 160.395L132.313 160.711ZM135.572 167.523C135.892 167.893 136.397 168.179 136.994 168.407C137.602 168.64 138.356 168.833 139.226 168.986C140.969 169.293 143.227 169.451 145.817 169.434L145.811 168.434C143.258 168.451 141.064 168.295 139.4 168.001C138.567 167.855 137.88 167.676 137.352 167.473C136.813 167.267 136.488 167.054 136.328 166.869L135.572 167.523ZM145.817 169.434C151.177 169.398 157.365 170.553 163.658 172.778L163.991 171.835C157.614 169.581 151.31 168.397 145.811 168.434L145.817 169.434ZM163.658 172.778C166.335 173.724 169.082 174.589 171.354 175.222C172.489 175.538 173.51 175.797 174.346 175.978C175.17 176.157 175.85 176.27 176.286 176.276L176.301 175.276C175.975 175.271 175.382 175.18 174.559 175.001C173.747 174.825 172.746 174.571 171.622 174.258C169.374 173.633 166.648 172.774 163.991 171.835L163.658 172.778ZM176.286 176.276C176.586 176.281 176.94 176.171 177.298 176.023C177.671 175.868 178.11 175.643 178.6 175.361C179.581 174.797 180.805 173.983 182.189 172.984C184.958 170.983 188.397 168.213 191.865 165.139L191.202 164.391C187.753 167.448 184.34 170.195 181.603 172.173C180.234 173.163 179.041 173.954 178.101 174.494C177.631 174.765 177.233 174.967 176.914 175.099C176.579 175.239 176.385 175.278 176.301 175.276L176.286 176.276ZM235.609 207.016C240.176 209.768 250.183 215.709 257.844 218.859L258.225 217.934C250.646 214.818 240.703 208.918 236.125 206.16L235.609 207.016ZM257.844 218.859C265.424 221.976 273.768 227.087 276.832 228.873L277.336 228.01C274.304 226.242 265.885 221.084 258.225 217.934L257.844 218.859ZM276.832 228.873C279.889 230.656 287.341 234.86 292.998 240.913L293.728 240.23C287.955 234.053 280.375 229.781 277.336 228.01L276.832 228.873ZM292.998 240.913C295.865 243.981 298.98 247.021 301.69 249.451C304.382 251.863 306.725 253.719 308.035 254.368L308.478 253.472C307.311 252.894 305.065 251.133 302.358 248.706C299.67 246.297 296.576 243.277 293.728 240.23L292.998 240.913ZM308.035 254.368C310.59 255.634 315.344 256.661 318.645 256.674L318.649 255.674C315.474 255.662 310.876 254.66 308.478 253.472L308.035 254.368ZM318.645 256.674C320.278 256.681 321.931 256.604 323.28 256.421C323.954 256.329 324.565 256.209 325.066 256.054C325.549 255.904 326.003 255.701 326.286 255.397L325.555 254.714C325.458 254.819 325.217 254.96 324.77 255.099C324.342 255.232 323.79 255.342 323.145 255.43C321.858 255.605 320.255 255.68 318.649 255.674L318.645 256.674ZM326.08 255.53C328.22 254.811 332.43 252.814 338.479 251.722L338.301 250.738C332.158 251.847 327.778 253.905 325.762 254.582L326.08 255.53ZM338.479 251.722C344.575 250.622 353.755 248.941 358.879 247.987L358.696 247.004C353.574 247.958 344.396 249.638 338.301 250.738L338.479 251.722ZM358.879 247.987C362.701 247.275 365.063 246.934 366.643 246.947C367.426 246.953 367.988 247.046 368.427 247.209C368.859 247.369 369.194 247.604 369.512 247.932L370.23 247.236C369.824 246.817 369.366 246.49 368.775 246.271C368.192 246.055 367.504 245.953 366.651 245.947C364.959 245.933 362.503 246.294 358.696 247.004L358.879 247.987ZM369.512 247.932C369.795 248.224 369.894 248.498 369.896 248.769C369.898 249.06 369.789 249.407 369.545 249.827C369.048 250.681 368.11 251.645 366.995 252.775L367.706 253.478C368.789 252.38 369.834 251.318 370.409 250.33C370.7 249.83 370.9 249.302 370.896 248.762C370.892 248.203 370.67 247.69 370.23 247.236L369.512 247.932ZM367.023 252.748C364.652 254.803 360.567 258.483 357.045 261.303L357.669 262.083C361.212 259.248 365.33 255.539 367.678 253.504L367.023 252.748ZM350.36 271.427L351.155 282.511L352.152 282.439L351.357 271.356L350.36 271.427ZM351.153 282.475C351.153 286.766 350.998 289.96 350.351 293.274C349.703 296.588 348.561 300.044 346.565 304.849L347.489 305.233C349.496 300.399 350.667 296.873 351.332 293.465C351.998 290.057 352.153 286.787 352.153 282.475H351.153ZM346.565 304.849C345.326 307.833 344.696 310.619 344.077 312.497C343.758 313.463 343.451 314.172 343.087 314.63C342.748 315.057 342.377 315.249 341.868 315.227L341.825 316.226C342.702 316.263 343.363 315.89 343.87 315.252C344.352 314.645 344.704 313.787 345.027 312.81C345.689 310.799 346.263 308.183 347.489 305.233L346.565 304.849ZM341.868 315.227C340.679 315.176 339.766 314.552 338.577 313.38C337.415 312.235 335.975 310.546 333.871 308.696L333.211 309.447C335.298 311.282 336.625 312.861 337.875 314.093C339.099 315.298 340.243 316.159 341.825 316.226L341.868 315.227ZM333.871 308.696C329.717 305.043 323.76 298.056 320.657 293.194L319.814 293.731C322.965 298.67 328.983 305.73 333.211 309.447L333.871 308.696ZM320.657 293.194C319.067 290.702 316.641 287.812 313.685 285.453C310.732 283.095 307.215 281.241 303.448 280.882L303.353 281.877C306.86 282.211 310.197 283.948 313.061 286.234C315.923 288.518 318.277 291.323 319.814 293.731L320.657 293.194ZM303.401 280.88C291.351 280.88 285.37 279.784 271.842 280.881L271.922 281.878C285.411 280.784 291.205 281.88 303.401 281.88V280.88ZM271.942 280.883C267.424 280.334 257.289 279.651 247.481 278.935C237.639 278.217 228.16 277.468 224.878 276.79L224.676 277.769C228.041 278.464 237.611 279.217 247.409 279.932C257.24 280.65 267.335 281.33 271.822 281.876L271.942 280.883ZM224.878 276.79C219.561 275.691 210.991 273.497 204.138 271.567L203.867 272.529C210.73 274.463 219.326 276.664 224.676 277.769L224.878 276.79ZM204.138 271.567C197.264 269.63 184.159 266.557 175.006 264.735L174.81 265.715C183.945 267.534 197.024 270.602 203.867 272.529L204.138 271.567ZM175.006 264.735C165.86 262.914 155.599 260.534 152.2 259.449L151.896 260.402C155.355 261.505 165.668 263.895 174.81 265.715L175.006 264.735ZM152.2 259.449C148.764 258.353 143.146 256.699 139.709 255.774L139.449 256.739C142.871 257.661 148.475 259.31 151.896 260.402L152.2 259.449ZM139.709 255.774C136.322 254.861 129.496 252.16 124.557 249.773L124.122 250.673C129.089 253.075 135.979 255.804 139.449 256.739L139.709 255.774ZM124.557 249.773C119.654 247.403 112.215 242.195 108.06 238.221L107.369 238.944C111.595 242.986 119.119 248.255 124.122 250.673L124.557 249.773ZM108.022 238.188C105.579 236.276 103.497 234.692 101.942 233.501C100.366 232.294 99.372 231.521 99.0558 231.205L98.3487 231.912C98.7253 232.289 99.7965 233.118 101.334 234.295C102.891 235.487 104.968 237.068 107.406 238.976L108.022 238.188ZM98.9259 231.112C98.8332 231.065 98.6286 230.902 98.2981 230.581C97.9854 230.276 97.6062 229.877 97.1753 229.416C96.3194 228.499 95.2697 227.348 94.2043 226.297L93.5022 227.009C94.5484 228.041 95.5769 229.169 96.4444 230.098C96.8752 230.559 97.269 230.975 97.6006 231.297C97.9142 231.603 98.225 231.879 98.4787 232.006L98.9259 231.112ZM94.2043 226.297C92.147 224.269 91.5276 222.949 90.4787 221.201L89.6212 221.715C90.6505 223.431 91.3361 224.874 93.5022 227.009L94.2043 226.297ZM90.5069 221.255C89.1187 218.131 88.6137 217.308 86.7098 213.332L85.8078 213.764C87.7346 217.788 88.2103 218.55 89.593 221.661L90.5069 221.255ZM86.7098 213.332C84.5059 208.728 83.9344 203.561 83.9624 199.35L82.9625 199.343C82.9339 203.633 83.5129 208.97 85.8078 213.764L86.7098 213.332ZM83.9566 199.422C84.3033 197.169 84.5537 195.81 84.9307 194.635C85.3047 193.468 85.8094 192.466 86.6919 190.937L85.8258 190.437C84.9326 191.985 84.3855 193.06 83.9785 194.329C83.5743 195.589 83.3143 197.021 82.9683 199.27L83.9566 199.422ZM86.6335 191.018C88.3235 189.105 92.4554 184.751 96.1873 182.605L95.6889 181.738C91.8009 183.974 87.5749 188.442 85.8841 190.356L86.6335 191.018ZM96.1873 182.605C100.007 180.409 104.582 177.276 106.358 175.626L105.678 174.893C103.986 176.466 99.4888 179.554 95.6889 181.738L96.1873 182.605ZM106.446 175.518C107.12 174.401 107.722 173.401 108.198 172.551C108.671 171.706 109.038 170.978 109.228 170.41L108.279 170.093C108.122 170.564 107.797 171.221 107.326 172.062C106.859 172.896 106.266 173.881 105.59 175.001L106.446 175.518ZM109.228 170.41C109.575 169.368 110.543 166.493 111.697 164.245L110.808 163.788C109.613 166.113 108.624 169.057 108.279 170.093L109.228 170.41ZM111.697 164.245C112.892 161.92 114.517 157.521 115.32 154.445L114.353 154.192C113.564 157.212 111.963 161.541 110.808 163.788L111.697 164.245ZM115.32 154.445C115.71 152.954 116.319 151.319 116.987 149.89C117.66 148.449 118.37 147.265 118.947 146.644L118.214 145.963C117.528 146.702 116.765 148.002 116.081 149.466C115.391 150.943 114.76 152.635 114.353 154.192L115.32 154.445ZM118.947 146.644C119.544 146 120.23 145.475 120.844 145.146C121.151 144.982 121.427 144.875 121.655 144.822C121.89 144.768 122.027 144.783 122.09 144.806L122.433 143.867C122.114 143.75 121.759 143.772 121.43 143.848C121.093 143.926 120.733 144.072 120.373 144.264C119.652 144.65 118.879 145.246 118.214 145.963L118.947 146.644ZM125.838 175.615C125.145 175.453 124.336 175.561 123.6 175.824C122.859 176.088 122.135 176.529 121.613 177.1L122.35 177.775C122.744 177.345 123.32 176.985 123.936 176.765C124.557 176.544 125.162 176.484 125.611 176.589L125.838 175.615ZM121.613 177.1C121.088 177.673 120.559 178.709 120.115 179.866C119.665 181.04 119.279 182.403 119.064 183.677L120.05 183.843C120.253 182.64 120.62 181.342 121.049 180.224C121.484 179.089 121.959 178.202 122.35 177.775L121.613 177.1ZM119.064 183.677C118.787 185.316 118.732 186.598 118.98 187.588C119.237 188.619 119.819 189.313 120.724 189.752L121.16 188.852C120.52 188.542 120.135 188.088 119.95 187.346C119.754 186.563 119.779 185.449 120.05 183.843L119.064 183.677ZM120.724 189.752C122.252 190.492 124.163 189.967 125.506 188.615L124.796 187.91C123.665 189.049 122.201 189.356 121.16 188.852L120.724 189.752ZM125.506 188.615C126.155 187.962 126.734 186.815 127.169 185.547C127.609 184.263 127.925 182.785 128.009 181.416L127.01 181.355C126.933 182.625 126.637 184.014 126.223 185.223C125.803 186.448 125.283 187.42 124.796 187.91L125.506 188.615ZM128.009 181.416C128.111 179.746 128.027 178.43 127.703 177.471C127.369 176.481 126.76 175.83 125.838 175.615L125.611 176.589C126.12 176.707 126.504 177.047 126.755 177.791C127.017 178.564 127.11 179.723 127.01 181.355L128.009 181.416ZM187.377 184.992C186.934 184.992 186.494 185.211 186.102 185.499C185.698 185.795 185.284 186.21 184.881 186.701C184.074 187.684 183.27 189.026 182.653 190.493L183.575 190.881C184.159 189.491 184.916 188.235 185.654 187.335C186.024 186.885 186.378 186.536 186.694 186.305C187.021 186.065 187.249 185.992 187.377 185.992V184.992ZM182.653 190.493C182.037 191.957 181.533 193.679 181.213 195.276C180.896 196.861 180.751 198.376 180.886 199.411L181.878 199.282C181.764 198.412 181.883 197.026 182.194 195.472C182.502 193.93 182.989 192.275 183.575 190.881L182.653 190.493ZM180.886 199.411C181.047 200.638 181.398 201.62 182.017 202.298C182.651 202.995 183.509 203.31 184.537 203.31V202.31C183.728 202.31 183.162 202.071 182.756 201.625C182.333 201.161 182.025 200.411 181.878 199.282L180.886 199.411ZM184.537 203.31C185.71 203.31 186.658 202.8 187.482 201.709C188.282 200.65 188.984 199.022 189.723 196.729L188.771 196.422C188.037 198.701 187.376 200.19 186.684 201.106C186.017 201.989 185.347 202.31 184.537 202.31V203.31ZM189.723 196.729C190.284 194.985 190.692 193.124 190.896 191.524C190.999 190.723 191.051 189.98 191.046 189.345C191.04 188.721 190.978 188.158 190.823 187.742L189.886 188.09C189.979 188.341 190.04 188.765 190.046 189.354C190.051 189.932 190.003 190.627 189.904 191.397C189.708 192.935 189.314 194.737 188.771 196.422L189.723 196.729ZM190.823 187.742C190.542 186.984 190.027 186.306 189.425 185.816C188.828 185.33 188.099 184.992 187.377 184.992V185.992C187.798 185.992 188.31 186.198 188.793 186.592C189.271 186.98 189.673 187.515 189.886 188.09L190.823 187.742ZM135.423 215.472C134.56 215.472 133.666 215.748 132.912 216.18C132.163 216.609 131.504 217.221 131.162 217.94L132.065 218.37C132.294 217.888 132.778 217.409 133.409 217.047C134.037 216.688 134.762 216.472 135.423 216.472V215.472ZM131.162 217.94C130.724 218.86 130.785 219.806 131.313 220.776C131.825 221.716 132.777 222.688 134.135 223.745L134.749 222.956C133.426 221.926 132.604 221.056 132.192 220.298C131.795 219.57 131.782 218.963 132.065 218.37L131.162 217.94ZM134.135 223.745C136.292 225.425 141.305 228.6 145.283 230.811L145.769 229.937C141.81 227.736 136.847 224.59 134.749 222.956L134.135 223.745ZM145.283 230.811C147.484 232.035 149.558 232.965 151.278 233.521C152.138 233.799 152.92 233.987 153.594 234.07C154.256 234.151 154.862 234.136 155.338 233.961L154.993 233.022C154.736 233.117 154.316 233.151 153.715 233.077C153.125 233.005 152.408 232.835 151.586 232.569C149.944 232.038 147.93 231.139 145.769 229.937L145.283 230.811ZM155.338 233.961C156.097 233.681 156.775 233.167 157.265 232.566C157.751 231.97 158.09 231.242 158.09 230.52H157.09C157.09 230.94 156.883 231.452 156.49 231.934C156.102 232.41 155.568 232.81 154.993 233.022L155.338 233.961ZM158.09 230.52C158.09 230.072 157.846 229.59 157.536 229.145C157.212 228.678 156.755 228.165 156.207 227.638C155.11 226.583 153.608 225.431 151.962 224.429L151.442 225.283C153.034 226.253 154.476 227.361 155.514 228.359C156.033 228.859 156.441 229.321 156.715 229.715C157.003 230.131 157.09 230.396 157.09 230.52H158.09ZM151.962 224.429C148.728 222.46 144.374 219.66 142.289 218.211L141.718 219.032C143.825 220.497 148.199 223.308 151.442 225.283L151.962 224.429ZM142.289 218.211C141.207 217.458 139.909 216.779 138.686 216.287C137.477 215.8 136.283 215.472 135.423 215.472V216.472C136.087 216.472 137.136 216.741 138.312 217.214C139.475 217.682 140.705 218.327 141.718 219.032L142.289 218.211ZM356.974 261.371L353.234 265.818L353.999 266.461L357.74 262.015L356.974 261.371ZM353.253 265.796L351.29 267.874L352.017 268.561L353.98 266.483L353.253 265.796ZM351.168 268.096L350.374 271.27L351.344 271.513L352.138 268.339L351.168 268.096ZM113.379 140.81L114.2 141.381V141.381L113.379 140.81ZM108.599 150.855L109.545 151.178L108.599 150.855ZM103.627 163.67L104.545 164.067L103.627 163.67ZM97.6699 171.483L97.0902 170.668L97.0525 170.695L97.0174 170.725L97.6699 171.483ZM85.2009 181.182L84.5298 180.44L84.482 180.484L84.4401 180.533L85.2009 181.182ZM78.2737 189.302L77.5129 188.653L77.3957 188.79L77.3339 188.96L78.2737 189.302ZM75.8425 198.307L74.8622 198.11L74.8426 198.207L74.8425 198.307L75.8425 198.307ZM79.6525 217.205L78.7155 217.554L79.6525 217.205ZM90.05 234.136L89.4008 234.896L90.05 234.136ZM104.713 246.666L105.342 245.889L104.713 246.666ZM122.261 257.359L121.853 258.272L122.261 257.359ZM136.116 262.29L136.399 261.33L136.116 262.29ZM147.199 265.924L147.592 265.004H147.592L147.199 265.924ZM172.83 272.042L172.652 273.026L172.83 272.042ZM192.566 277.28L192.83 276.315L192.566 277.28ZM217.733 283.458L218.008 282.497L217.733 283.458ZM265.308 288.653L265.16 289.642L265.214 289.651L265.269 289.653L265.308 288.653ZM304.087 288.653L303.723 289.585L304.087 288.653ZM313.278 296.676L312.437 297.217L313.278 296.676ZM327.479 313.246L328.177 312.53L327.479 313.246ZM342.2 322.598L342.211 321.598L342.2 322.598ZM349.901 318.151L350.774 318.637V318.637L349.901 318.151ZM354.403 306.893L353.493 306.479L353.464 306.543L353.444 306.609L354.403 306.893ZM357.44 299.619L358.366 299.996L358.39 299.938L358.406 299.877L357.44 299.619ZM358.492 284.9L357.492 284.876L357.492 284.887V284.899L358.492 284.9ZM358.788 272.374L358.048 271.701L357.797 271.977L357.788 272.35L358.788 272.374ZM368.19 262.039L367.524 261.294L367.485 261.328L367.45 261.366L368.19 262.039ZM376.489 242.296L375.595 242.743L376.489 242.296ZM367.83 239.511L367.828 240.511L367.83 239.511ZM347.395 242.261L347.19 241.282L347.395 242.261ZM331.809 245.045L331.541 244.082L331.809 245.045ZM324.189 247.782L323.945 246.812L323.863 246.833L323.786 246.867L324.189 247.782ZM313.529 247.701L313.864 246.759V246.759L313.529 247.701ZM306.602 244.237L305.881 244.93L305.881 244.93L306.602 244.237ZM298.844 235.924L298.111 236.604L298.844 235.924ZM269.118 215.279L269.544 214.375L269.118 215.279ZM242.175 202.253L242.662 201.38V201.38L242.175 202.253ZM227.974 192.073L227.14 192.624L227.197 192.711L227.272 192.785L227.974 192.073ZM224.084 186.184L223.127 186.472L223.169 186.613L223.25 186.736L224.084 186.184ZM222.722 178.911L221.722 178.909L221.722 178.952L221.725 178.995L222.722 178.911ZM213.835 151.162L213.025 151.748V151.748L213.835 151.162ZM206.08 145.266L206.071 144.266L206.08 145.266ZM196.265 150.501L195.631 149.727L196.265 150.501ZM186.221 160.207L185.447 159.573V159.573L186.221 160.207ZM180.79 164.765L181.324 165.61L181.418 165.55L181.497 165.472L180.79 164.765ZM176.633 167.48L176.119 166.623L176.098 166.635L176.078 166.648L176.633 167.48ZM172.508 168.038L171.898 168.831L172.027 168.93L172.182 168.983L172.508 168.038ZM163.478 164.228L163.178 165.182V165.182L163.478 164.228ZM148.931 161.882L148.939 160.882L148.931 161.882ZM141.658 161.825L140.751 162.248L141.018 162.82L141.65 162.825L141.658 161.825ZM138.613 155.301L139.519 154.878L138.613 155.301ZM130.646 142.888L131.414 142.247L130.646 142.888ZM76.8883 193.112L75.9485 192.77L75.9228 192.841L75.9079 192.915L76.8883 193.112ZM223.045 182.721L222.049 182.805L222.058 182.909L222.088 183.008L223.045 182.721ZM120.876 136C118.946 136 117.398 136.226 116.04 136.916C114.678 137.609 113.62 138.71 112.558 140.239L114.2 141.381C115.171 139.983 116 139.18 116.947 138.699C117.898 138.215 119.082 138 120.876 138V136ZM112.558 140.239C111.031 142.436 108.844 147.048 107.652 150.531L109.545 151.178C110.699 147.803 112.814 143.376 114.2 141.381L112.558 140.239ZM107.652 150.531C106.489 153.934 104.261 159.676 102.709 163.274L104.545 164.067C106.116 160.425 108.363 154.634 109.545 151.178L107.652 150.531ZM102.709 163.274C101.117 166.963 98.6729 169.543 97.0902 170.668L98.2495 172.298C100.13 170.96 102.809 168.09 104.545 164.067L102.709 163.274ZM97.0174 170.725C96.3623 171.289 94.6137 172.49 92.2519 174.228C89.9403 175.929 87.1383 178.079 84.5298 180.44L85.8721 181.923C88.407 179.628 91.1467 177.525 93.4374 175.839C95.6779 174.19 97.592 172.87 98.3223 172.241L97.0174 170.725ZM84.4401 180.533L77.5129 188.653L79.0345 189.951L85.9617 181.831L84.4401 180.533ZM74.8425 198.307C74.8378 204.515 76.0125 210.303 78.7155 217.554L80.5895 216.856C77.949 209.772 76.838 204.224 76.8425 198.308L74.8425 198.307ZM78.7155 217.554C81.6127 225.326 85.0423 231.176 89.4008 234.896L90.6991 233.375C86.7166 229.976 83.4368 224.494 80.5895 216.856L78.7155 217.554ZM89.4008 234.896C92.4164 237.47 97.9766 242.49 104.083 247.443L105.342 245.889C99.2567 240.953 93.7794 236.004 90.6991 233.375L89.4008 234.896ZM104.083 247.443C110.27 252.46 118.759 256.888 121.853 258.272L122.67 256.446C119.668 255.104 111.347 250.759 105.342 245.889L104.083 247.443ZM121.853 258.272C124.955 259.66 131.235 261.893 135.833 263.249L136.399 261.33C131.853 259.99 125.664 257.786 122.67 256.446L121.853 258.272ZM135.833 263.249C140.413 264.599 145.345 266.22 146.807 266.844L147.592 265.004C146.006 264.327 140.963 262.676 136.399 261.33L135.833 263.249ZM146.807 266.844C148.403 267.525 152.204 268.705 155.266 269.482L155.758 267.543C152.724 266.774 149.043 265.624 147.592 265.004L146.807 266.844ZM155.266 269.482C158.35 270.264 166.172 271.858 172.652 273.026L173.007 271.058C166.534 269.891 158.77 268.308 155.758 267.543L155.266 269.482ZM172.652 273.026C179.072 274.184 188.03 277.074 192.302 278.244L192.83 276.315C188.72 275.19 179.541 272.236 173.007 271.058L172.652 273.026ZM192.302 278.244C194.42 278.824 199.028 279.884 203.92 281.035C208.836 282.192 214.056 283.444 217.457 284.419L218.008 282.497C214.552 281.506 209.284 280.243 204.378 279.088C199.449 277.929 194.902 276.882 192.83 276.315L192.302 278.244ZM217.457 284.419C223.035 286.018 231.663 286.815 240.478 287.468C249.355 288.126 258.458 288.639 265.16 289.642L265.456 287.664C258.657 286.646 249.431 286.126 240.626 285.474C231.758 284.817 223.349 284.027 218.008 282.497L217.457 284.419ZM265.269 289.653C283.18 290.347 281.009 289.653 295.081 289.653V287.653C280.779 287.653 283.25 288.348 265.347 287.654L265.269 289.653ZM295.081 289.653C296.672 289.653 298.507 289.442 300.026 289.345C301.648 289.241 302.909 289.267 303.723 289.585L304.45 287.722C303.169 287.222 301.48 287.248 299.899 287.349C298.215 287.456 296.595 287.653 295.081 287.653V289.653ZM303.723 289.585C304.673 289.955 306.218 290.866 307.866 292.211C309.505 293.549 311.184 295.268 312.437 297.217L314.119 296.136C312.725 293.967 310.888 292.096 309.131 290.662C307.384 289.236 305.658 288.193 304.45 287.722L303.723 289.585ZM312.437 297.217C315.064 301.305 321.513 308.821 326.78 313.961L328.177 312.53C322.966 307.445 316.634 300.048 314.119 296.136L312.437 297.217ZM326.78 313.961C330.897 317.979 333.525 320.383 335.712 321.772C337.987 323.217 339.794 323.572 342.189 323.598L342.211 321.598C340.097 321.575 338.676 321.286 336.785 320.084C334.805 318.826 332.326 316.579 328.177 312.53L326.78 313.961ZM342.189 323.598C344.413 323.622 346.054 323.49 347.414 322.705C348.776 321.918 349.701 320.566 350.774 318.637L349.027 317.665C347.954 319.593 347.253 320.488 346.414 320.973C345.573 321.459 344.437 321.622 342.211 321.598L342.189 323.598ZM350.774 318.637C352.198 316.078 354.25 310.939 355.362 307.176L353.444 306.609C352.359 310.278 350.359 315.271 349.027 317.665L350.774 318.637ZM355.314 307.306C356.976 303.647 356.64 304.24 358.366 299.996L356.513 299.242C354.763 303.547 355.133 302.868 353.493 306.479L355.314 307.306ZM358.406 299.877C359.136 297.139 359.485 292.704 359.492 284.901L357.492 284.899C357.485 292.716 357.128 296.907 356.473 299.361L358.406 299.877ZM359.492 284.923L359.788 272.398L357.788 272.35L357.492 284.876L359.492 284.923ZM359.527 273.047L368.93 262.712L367.45 261.366L358.048 271.701L359.527 273.047ZM368.857 262.785C372.805 259.254 375.298 256.839 376.798 254.855C378.343 252.81 378.875 251.168 378.875 249.224H376.875C376.875 250.676 376.521 251.903 375.202 253.649C373.837 255.455 371.488 257.749 367.524 261.294L368.857 262.785ZM378.875 249.224C378.875 248.001 378.709 246.583 378.448 245.278C378.19 243.986 377.822 242.726 377.384 241.849L375.595 242.743C375.918 243.39 376.243 244.451 376.487 245.67C376.729 246.877 376.875 248.161 376.875 249.224H378.875ZM377.384 241.849C377.067 241.215 376.685 240.648 376.16 240.175C375.633 239.699 375.006 239.359 374.251 239.116C372.793 238.647 370.76 238.517 367.832 238.511L367.828 240.511C370.781 240.517 372.517 240.659 373.639 241.02C374.174 241.192 374.539 241.406 374.821 241.66C375.107 241.918 375.352 242.258 375.595 242.743L377.384 241.849ZM367.832 238.511C363.727 238.504 354.45 239.758 347.19 241.282L347.601 243.239C354.818 241.724 363.933 240.504 367.828 240.511L367.832 238.511ZM347.19 241.282C343.61 242.034 341.076 242.355 338.744 242.677C336.406 243 334.265 243.323 331.541 244.082L332.077 246.009C334.669 245.287 336.702 244.978 339.018 244.658C341.34 244.338 343.942 244.007 347.601 243.239L347.19 241.282ZM331.541 244.082C329.055 244.775 328.047 245.241 327.176 245.659C326.392 246.036 325.765 246.354 323.945 246.812L324.433 248.752C326.423 248.251 327.181 247.876 328.043 247.462C328.817 247.09 329.714 246.667 332.077 246.009L331.541 244.082ZM323.786 246.867C321.529 247.86 320.242 248.192 318.987 248.143C317.683 248.092 316.322 247.632 313.864 246.759L313.195 248.644C315.563 249.485 317.237 250.076 318.909 250.142C320.63 250.209 322.26 249.724 324.592 248.697L323.786 246.867ZM313.864 246.759C312.4 246.239 310.906 245.598 309.688 244.988C309.079 244.684 308.548 244.392 308.129 244.132C307.692 243.861 307.435 243.66 307.323 243.544L305.881 244.93C306.172 245.233 306.606 245.541 307.074 245.831C307.56 246.133 308.147 246.454 308.793 246.777C310.086 247.424 311.654 248.096 313.195 248.644L313.864 246.759ZM307.323 243.544C306.526 242.715 303.043 238.982 299.578 235.244L298.111 236.604C301.571 240.336 305.069 244.084 305.881 244.93L307.323 243.544ZM299.578 235.244C297.791 233.317 295.399 231.313 293.062 229.468C290.674 227.583 288.429 225.929 286.718 224.546L285.461 226.102C287.146 227.463 289.547 229.242 291.823 231.038C294.148 232.873 296.436 234.797 298.111 236.604L299.578 235.244ZM286.718 224.546C283.236 221.733 275.487 217.173 269.544 214.375L268.692 216.184C274.56 218.947 282.152 223.428 285.461 226.102L286.718 224.546ZM269.544 214.375C266.623 212.999 263.637 211.543 261.185 210.399C258.755 209.266 256.664 208.349 255.494 208.072L255.033 210.018C255.959 210.237 257.842 211.047 260.339 212.212C262.814 213.366 265.708 214.779 268.692 216.184L269.544 214.375ZM255.494 208.072C255.082 207.974 254.392 207.7 253.453 207.256C252.535 206.821 251.442 206.254 250.251 205.611C247.862 204.322 245.133 202.759 242.662 201.38L241.687 203.127C244.129 204.489 246.897 206.074 249.301 207.371C250.505 208.021 251.633 208.607 252.597 209.063C253.541 209.51 254.397 209.867 255.033 210.018L255.494 208.072ZM242.662 201.38C237.8 198.667 231.49 194.136 228.676 191.361L227.272 192.785C230.252 195.724 236.724 200.356 241.687 203.127L242.662 201.38ZM228.808 191.522L224.919 185.633L223.25 186.736L227.14 192.624L228.808 191.522ZM223.722 178.913C223.731 174.433 222.686 167.622 221.38 163.701L219.483 164.333C220.714 168.031 221.73 174.625 221.722 178.909L223.722 178.913ZM221.38 163.701C220.08 159.794 217.064 153.918 214.645 150.575L213.025 151.748C215.325 154.926 218.247 160.62 219.483 164.333L221.38 163.701ZM214.645 150.575C211.54 146.285 209.124 144.238 206.071 144.266L206.09 146.266C208.047 146.248 209.923 147.463 213.025 151.748L214.645 150.575ZM206.071 144.266C205.424 144.272 204.665 144.466 203.892 144.746C203.1 145.033 202.218 145.439 201.301 145.928C199.468 146.905 197.439 148.246 195.631 149.727L196.899 151.274C198.606 149.876 200.526 148.608 202.243 147.692C203.101 147.235 203.894 146.872 204.573 146.626C205.271 146.373 205.779 146.268 206.09 146.266L206.071 144.266ZM195.631 149.727C192.106 152.615 187.533 157.029 185.447 159.573L186.994 160.841C188.97 158.431 193.437 154.11 196.899 151.274L195.631 149.727ZM185.447 159.573C184.513 160.712 183.67 161.358 182.824 161.942C181.984 162.523 181.03 163.11 180.082 164.058L181.497 165.472C182.281 164.688 183.027 164.234 183.962 163.588C184.891 162.945 185.898 162.178 186.994 160.841L185.447 159.573ZM180.255 163.92C179.719 164.259 179.089 164.694 178.412 165.15C177.725 165.613 176.962 166.117 176.119 166.623L177.148 168.338C178.036 167.805 178.832 167.279 179.53 166.809C180.239 166.331 180.821 165.928 181.324 165.61L180.255 163.92ZM176.078 166.648C175.524 167.018 175.202 167.247 174.926 167.416C174.666 167.575 174.578 167.595 174.543 167.6C174.512 167.605 174.426 167.613 174.141 167.533C173.842 167.448 173.462 167.31 172.835 167.093L172.182 168.983C172.751 169.18 173.225 169.352 173.599 169.458C173.988 169.567 174.394 169.644 174.835 169.579C175.272 169.514 175.637 169.326 175.971 169.121C176.289 168.927 176.703 168.636 177.188 168.313L176.078 166.648ZM173.119 167.246C172.85 167.039 172.361 166.771 171.803 166.491C171.215 166.196 170.467 165.848 169.621 165.479C167.93 164.744 165.82 163.917 163.778 163.274L163.178 165.182C165.137 165.799 167.18 166.598 168.823 167.313C169.644 167.67 170.358 168.004 170.906 168.279C171.484 168.569 171.805 168.758 171.898 168.831L173.119 167.246ZM163.778 163.274C159.688 161.987 153.043 160.914 148.939 160.882L148.923 162.882C152.82 162.912 159.268 163.951 163.178 165.182L163.778 163.274ZM148.939 160.882L141.665 160.825L141.65 162.825L148.923 162.882L148.939 160.882ZM142.564 161.402L139.519 154.878L137.706 155.724L140.751 162.248L142.564 161.402ZM139.519 154.878C137.805 151.206 134.172 145.548 131.414 142.247L129.879 143.53C132.534 146.706 136.071 152.219 137.706 155.724L139.519 154.878ZM131.414 142.247C129.379 139.813 127.846 138.221 126.255 137.262C124.606 136.269 122.977 136 120.876 136V138C122.784 138 124.005 138.241 125.223 138.975C126.497 139.743 127.844 141.095 129.879 143.53L131.414 142.247ZM77.3339 188.96L75.9485 192.77L77.8281 193.454L79.2135 189.643L77.3339 188.96ZM75.9079 192.915L74.8622 198.11L76.8229 198.505L77.8686 193.309L75.9079 192.915ZM225.042 185.897L224.003 182.433L222.088 183.008L223.127 186.472L225.042 185.897ZM224.042 182.636L223.718 178.826L221.725 178.995L222.049 182.805L224.042 182.636Z" fill="white" mask="url(#path-2-inside-1)"/>
<mask id="path-4-inside-2" fill="white">
<path d="M120.876 137C117.152 137 115.413 137.884 113.379 140.81C111.923 142.906 109.771 147.426 108.599 150.855C107.426 154.284 105.189 160.051 103.627 163.67C101.963 167.526 99.4017 170.251 97.6699 171.483C96.2844 172.676 90.3444 176.525 85.2009 181.182L78.2737 189.302L76.8883 193.112L75.8425 198.307C75.8379 204.369 76.9807 210.038 79.6525 217.205C82.5248 224.91 85.8794 230.576 90.05 234.136C93.0979 236.737 98.6166 241.722 104.713 246.666C110.808 251.61 119.213 255.996 122.261 257.359C125.309 258.723 131.544 260.941 136.116 262.29C140.688 263.638 145.675 265.273 147.199 265.924C148.723 266.575 152.464 267.74 155.512 268.513C158.56 269.286 166.353 270.874 172.83 272.042C179.307 273.21 188.375 276.132 192.566 277.28C196.757 278.427 210.875 281.492 217.733 283.458C228.651 286.587 251.807 286.632 265.308 288.653C283.215 289.347 280.894 288.653 295.081 288.653C298.185 288.653 301.991 287.835 304.087 288.653C306.244 289.495 310.632 292.559 313.278 296.676C315.849 300.677 322.24 308.133 327.479 313.246C335.745 321.312 337.691 322.549 342.2 322.598C346.65 322.646 347.754 322.008 349.901 318.151C351.278 315.675 353.305 310.608 354.403 306.893C356.054 303.257 355.701 303.894 357.44 299.619C358.132 297.023 358.485 292.71 358.492 284.9L358.788 272.374L368.19 262.039C376.103 254.964 377.875 252.62 377.875 249.224C377.875 246.938 377.251 243.82 376.489 242.296C375.369 240.056 373.71 239.523 367.83 239.511C363.83 239.504 354.634 240.741 347.395 242.261C340.156 243.78 337.125 243.565 331.809 245.045C326.96 246.396 327.999 246.823 324.189 247.782C319.6 249.802 318.356 249.416 313.529 247.701C310.524 246.634 307.407 245.075 306.602 244.237C305.798 243.399 302.307 239.659 298.844 235.924C295.382 232.19 289.485 228.068 286.089 225.324C282.694 222.58 275.023 218.06 269.118 215.279C263.212 212.499 257.359 209.542 255.263 209.045C253.168 208.548 247.088 204.995 242.175 202.253C237.262 199.512 230.871 194.93 227.974 192.073L224.084 186.184L223.045 182.721L222.722 178.911C222.731 174.529 221.7 167.827 220.432 164.017C219.163 160.207 216.195 154.422 213.835 151.162C210.731 146.874 208.586 145.243 206.08 145.266C204.164 145.283 199.78 147.621 196.265 150.501C192.772 153.362 188.252 157.73 186.221 160.207C184.19 162.683 182.521 163.033 180.79 164.765C179.75 165.422 178.365 166.441 176.633 167.48C174.555 168.866 174.901 168.866 172.508 168.038C171.784 167.48 167.479 165.488 163.478 164.228C159.478 162.969 152.932 161.913 148.931 161.882L141.658 161.825L138.613 155.301C136.938 151.712 133.353 146.127 130.646 142.888C126.577 138.02 124.885 137 120.876 137ZM122.261 144.336C123.023 144.615 125.341 147.286 127.412 150.273C129.483 153.26 131.902 157.886 132.788 160.553C133.674 163.22 135.097 166.209 135.95 167.196C136.91 168.306 140.671 168.968 145.814 168.934C151.244 168.897 157.49 170.067 163.825 172.306C169.158 174.192 174.77 175.754 176.294 175.776C177.831 175.799 184.616 170.896 191.533 164.765C198.391 158.686 204.782 153.693 205.734 153.669C206.687 153.645 209.336 157.522 211.621 162.285C214.751 168.808 215.431 172.909 215.432 178.911C215.433 183.292 216.658 188.592 217.733 190.687C218.808 192.783 221.458 196.091 223.621 198.038C225.785 199.986 231.295 203.833 235.867 206.588C240.439 209.343 250.414 215.263 258.034 218.397C265.654 221.53 274.036 226.664 277.084 228.441C280.132 230.219 287.648 234.457 293.363 240.571C299.078 246.686 305.78 252.693 308.257 253.92C310.733 255.147 315.409 256.161 318.647 256.174C321.886 256.187 325.159 255.871 325.921 255.056C327.999 254.358 332.294 252.33 338.39 251.23C344.486 250.13 353.665 248.449 358.788 247.495C366.416 246.074 368.422 246.09 369.871 247.584C371.315 249.074 369.549 250.899 367.35 253.126C364.991 255.171 360.89 258.866 357.357 261.693L353.616 266.139L351.653 268.218L350.859 271.391L351.653 282.475C351.653 291.078 351.03 295.402 347.027 305.041C344.562 310.975 344.618 315.844 341.847 315.727C339.076 315.609 337.732 312.756 333.541 309.071C329.35 305.387 323.363 298.363 320.236 293.463C317.109 288.562 310.674 282.072 303.401 281.38C291.278 281.38 285.39 280.284 271.882 281.38C262.877 280.284 231.424 278.652 224.777 277.28C219.443 276.178 210.86 273.98 204.002 272.048C197.144 270.116 184.052 267.046 174.908 265.225C165.764 263.404 155.477 261.02 152.048 259.925C148.619 258.831 143.008 257.18 139.579 256.256C136.15 255.332 129.292 252.618 124.34 250.223C119.387 247.829 111.905 242.59 107.714 238.582C102.833 234.762 99.395 232.252 98.7023 231.559C98.0096 231.212 95.9649 228.735 93.8532 226.653C91.7416 224.571 91.089 223.19 90.05 221.458C88.6645 218.34 88.1741 217.548 86.2588 213.548C84.0094 208.849 83.4342 203.597 83.4624 199.346C84.1552 194.844 84.4832 193.763 86.2588 190.687C87.9492 188.774 92.1281 184.362 95.9381 182.172C99.748 179.981 104.284 176.871 106.018 175.26C107.368 173.022 108.407 171.291 108.753 170.251C109.1 169.212 110.078 166.303 111.253 164.017C112.427 161.731 114.04 157.367 114.837 154.318C115.633 151.27 117.318 147.664 118.58 146.303C119.843 144.943 121.499 144.058 122.261 144.336ZM125.725 176.102C124.582 175.836 122.897 176.437 121.981 177.437C121.065 178.438 119.974 181.283 119.557 183.76C119.01 187.005 119.397 188.553 120.942 189.302C122.227 189.924 123.914 189.508 125.151 188.263C126.287 187.12 127.348 184.025 127.509 181.385C127.712 178.084 127.155 176.435 125.725 176.102ZM187.377 185.492C186.234 185.492 184.316 187.83 183.114 190.687C181.912 193.545 181.133 197.441 181.382 199.346C181.69 201.702 182.7 202.81 184.537 202.81C186.519 202.81 187.775 201.148 189.247 196.576C190.351 193.146 190.849 189.25 190.355 187.916C189.86 186.583 188.52 185.492 187.377 185.492ZM135.423 215.972C133.899 215.972 132.185 216.954 131.613 218.155C130.893 219.668 131.762 221.263 134.442 223.351C136.57 225.008 141.557 228.168 145.526 230.374C149.889 232.8 153.699 234.032 155.166 233.492C156.499 233 157.59 231.663 157.59 230.52C157.59 229.377 154.94 226.828 151.702 224.856C148.464 222.884 144.099 220.078 142.004 218.621C139.908 217.164 136.947 215.972 135.423 215.972Z"/>
</mask>
<path d="M120.876 137C117.152 137 115.413 137.884 113.379 140.81C111.923 142.906 109.771 147.426 108.599 150.855C107.426 154.284 105.189 160.051 103.627 163.67C101.963 167.526 99.4017 170.251 97.6699 171.483C96.2844 172.676 90.3444 176.525 85.2009 181.182L78.2737 189.302L76.8883 193.112L75.8425 198.307C75.8379 204.369 76.9807 210.038 79.6525 217.205C82.5248 224.91 85.8794 230.576 90.05 234.136C93.0979 236.737 98.6166 241.722 104.713 246.666C110.808 251.61 119.213 255.996 122.261 257.359C125.309 258.723 131.544 260.941 136.116 262.29C140.688 263.638 145.675 265.273 147.199 265.924C148.723 266.575 152.464 267.74 155.512 268.513C158.56 269.286 166.353 270.874 172.83 272.042C179.307 273.21 188.375 276.132 192.566 277.28C196.757 278.427 210.875 281.492 217.733 283.458C228.651 286.587 251.807 286.632 265.308 288.653C283.215 289.347 280.894 288.653 295.081 288.653C298.185 288.653 301.991 287.835 304.087 288.653C306.244 289.495 310.632 292.559 313.278 296.676C315.849 300.677 322.24 308.133 327.479 313.246C335.745 321.312 337.691 322.549 342.2 322.598C346.65 322.646 347.754 322.008 349.901 318.151C351.278 315.675 353.305 310.608 354.403 306.893C356.054 303.257 355.701 303.894 357.44 299.619C358.132 297.023 358.485 292.71 358.492 284.9L358.788 272.374L368.19 262.039C376.103 254.964 377.875 252.62 377.875 249.224C377.875 246.938 377.251 243.82 376.489 242.296C375.369 240.056 373.71 239.523 367.83 239.511C363.83 239.504 354.634 240.741 347.395 242.261C340.156 243.78 337.125 243.565 331.809 245.045C326.96 246.396 327.999 246.823 324.189 247.782C319.6 249.802 318.356 249.416 313.529 247.701C310.524 246.634 307.407 245.075 306.602 244.237C305.798 243.399 302.307 239.659 298.844 235.924C295.382 232.19 289.485 228.068 286.089 225.324C282.694 222.58 275.023 218.06 269.118 215.279C263.212 212.499 257.359 209.542 255.263 209.045C253.168 208.548 247.088 204.995 242.175 202.253C237.262 199.512 230.871 194.93 227.974 192.073L224.084 186.184L223.045 182.721L222.722 178.911C222.731 174.529 221.7 167.827 220.432 164.017C219.163 160.207 216.195 154.422 213.835 151.162C210.731 146.874 208.586 145.243 206.08 145.266C204.164 145.283 199.78 147.621 196.265 150.501C192.772 153.362 188.252 157.73 186.221 160.207C184.19 162.683 182.521 163.033 180.79 164.765C179.75 165.422 178.365 166.441 176.633 167.48C174.555 168.866 174.901 168.866 172.508 168.038C171.784 167.48 167.479 165.488 163.478 164.228C159.478 162.969 152.932 161.913 148.931 161.882L141.658 161.825L138.613 155.301C136.938 151.712 133.353 146.127 130.646 142.888C126.577 138.02 124.885 137 120.876 137ZM122.261 144.336C123.023 144.615 125.341 147.286 127.412 150.273C129.483 153.26 131.902 157.886 132.788 160.553C133.674 163.22 135.097 166.209 135.95 167.196C136.91 168.306 140.671 168.968 145.814 168.934C151.244 168.897 157.49 170.067 163.825 172.306C169.158 174.192 174.77 175.754 176.294 175.776C177.831 175.799 184.616 170.896 191.533 164.765C198.391 158.686 204.782 153.693 205.734 153.669C206.687 153.645 209.336 157.522 211.621 162.285C214.751 168.808 215.431 172.909 215.432 178.911C215.433 183.292 216.658 188.592 217.733 190.687C218.808 192.783 221.458 196.091 223.621 198.038C225.785 199.986 231.295 203.833 235.867 206.588C240.439 209.343 250.414 215.263 258.034 218.397C265.654 221.53 274.036 226.664 277.084 228.441C280.132 230.219 287.648 234.457 293.363 240.571C299.078 246.686 305.78 252.693 308.257 253.92C310.733 255.147 315.409 256.161 318.647 256.174C321.886 256.187 325.159 255.871 325.921 255.056C327.999 254.358 332.294 252.33 338.39 251.23C344.486 250.13 353.665 248.449 358.788 247.495C366.416 246.074 368.422 246.09 369.871 247.584C371.315 249.074 369.549 250.899 367.35 253.126C364.991 255.171 360.89 258.866 357.357 261.693L353.616 266.139L351.653 268.218L350.859 271.391L351.653 282.475C351.653 291.078 351.03 295.402 347.027 305.041C344.562 310.975 344.618 315.844 341.847 315.727C339.076 315.609 337.732 312.756 333.541 309.071C329.35 305.387 323.363 298.363 320.236 293.463C317.109 288.562 310.674 282.072 303.401 281.38C291.278 281.38 285.39 280.284 271.882 281.38C262.877 280.284 231.424 278.652 224.777 277.28C219.443 276.178 210.86 273.98 204.002 272.048C197.144 270.116 184.052 267.046 174.908 265.225C165.764 263.404 155.477 261.02 152.048 259.925C148.619 258.831 143.008 257.18 139.579 256.256C136.15 255.332 129.292 252.618 124.34 250.223C119.387 247.829 111.905 242.59 107.714 238.582C102.833 234.762 99.395 232.252 98.7023 231.559C98.0096 231.212 95.9649 228.735 93.8532 226.653C91.7416 224.571 91.089 223.19 90.05 221.458C88.6645 218.34 88.1741 217.548 86.2588 213.548C84.0094 208.849 83.4342 203.597 83.4624 199.346C84.1552 194.844 84.4832 193.763 86.2588 190.687C87.9492 188.774 92.1281 184.362 95.9381 182.172C99.748 179.981 104.284 176.871 106.018 175.26C107.368 173.022 108.407 171.291 108.753 170.251C109.1 169.212 110.078 166.303 111.253 164.017C112.427 161.731 114.04 157.367 114.837 154.318C115.633 151.27 117.318 147.664 118.58 146.303C119.843 144.943 121.499 144.058 122.261 144.336ZM125.725 176.102C124.582 175.836 122.897 176.437 121.981 177.437C121.065 178.438 119.974 181.283 119.557 183.76C119.01 187.005 119.397 188.553 120.942 189.302C122.227 189.924 123.914 189.508 125.151 188.263C126.287 187.12 127.348 184.025 127.509 181.385C127.712 178.084 127.155 176.435 125.725 176.102ZM187.377 185.492C186.234 185.492 184.316 187.83 183.114 190.687C181.912 193.545 181.133 197.441 181.382 199.346C181.69 201.702 182.7 202.81 184.537 202.81C186.519 202.81 187.775 201.148 189.247 196.576C190.351 193.146 190.849 189.25 190.355 187.916C189.86 186.583 188.52 185.492 187.377 185.492ZM135.423 215.972C133.899 215.972 132.185 216.954 131.613 218.155C130.893 219.668 131.762 221.263 134.442 223.351C136.57 225.008 141.557 228.168 145.526 230.374C149.889 232.8 153.699 234.032 155.166 233.492C156.499 233 157.59 231.663 157.59 230.52C157.59 229.377 154.94 226.828 151.702 224.856C148.464 222.884 144.099 220.078 142.004 218.621C139.908 217.164 136.947 215.972 135.423 215.972Z" fill="black" stroke="black" stroke-width="2" mask="url(#path-4-inside-2)"/>
</svg>
