# Blender v2.82 (sub 7) OBJ File: 'usagi_v1.blend'
# www.blender.org
mtllib usagi_v1.mtl
o Cube
v -0.741788 0.169860 0.263974
v -0.741788 0.169860 -0.263974
v -0.472627 1.345316 0.212449
v -0.472627 1.345316 -0.212449
v -0.513230 1.733540 -0.156874
v -0.513230 1.733540 0.156874
v -1.030875 2.084612 -0.293274
v -1.030875 2.084612 0.293274
v -1.160286 3.411169 -0.330533
v -1.160287 3.411169 0.330533
v -0.451559 0.003193 -0.373112
v -0.451559 0.003193 0.373112
v -0.257796 1.345316 -0.316904
v -0.257797 1.345316 0.316904
v -0.279944 1.733540 -0.228235
v -0.279944 1.733540 0.228235
v -0.562295 2.084612 -0.438142
v -0.562296 2.084612 0.438142
v -0.632883 3.413937 -0.376807
v -0.632884 3.413937 0.376808
v -0.791104 4.561600 -0.247900
v -1.107546 4.561600 -0.247900
v -0.791105 4.561600 0.247900
v -1.107546 4.561601 0.247900
v 0.741788 0.169860 0.263974
v 0.741788 0.169860 -0.263974
v 0.472627 1.345316 0.212449
v 0.472627 1.345316 -0.212449
v 0.513230 1.733540 -0.156874
v 0.513230 1.733540 0.156874
v 1.030875 2.084612 -0.293274
v 1.030875 2.084612 0.293274
v 1.160286 3.411169 -0.330533
v 1.160287 3.411169 0.330533
v -0.000000 0.003193 -0.373112
v 0.000000 0.003193 0.373112
v 0.000000 1.345316 -0.315331
v 0.000000 1.345316 0.315332
v 0.000000 1.733540 -0.221944
v 0.000000 1.733540 0.221945
v 0.000000 2.084612 -0.436569
v 0.000000 2.084612 0.436570
v 0.000000 3.157715 -0.330533
v 0.000000 3.157715 0.330533
v 0.451559 0.003193 -0.373112
v 0.451559 0.003193 0.373112
v 0.257796 1.345316 -0.316904
v 0.257797 1.345316 0.316904
v 0.279944 1.733540 -0.228235
v 0.279944 1.733540 0.228235
v 0.562295 2.084612 -0.438142
v 0.562296 2.084612 0.438142
v 0.632883 3.413937 -0.376807
v 0.632884 3.413937 0.376808
v 0.791104 4.561600 -0.247900
v 1.107546 4.561600 -0.247900
v 0.791105 4.561600 0.247900
v 1.107546 4.561601 0.247900
v -0.654625 0.031743 -0.353977
v -0.654625 0.031743 0.353977
v -0.792727 0.060292 -0.000000
v -0.637219 0.692564 0.286313
v -0.637218 0.692564 -0.286313
v -0.381324 1.345316 -0.304732
v -0.381324 1.345316 0.304732
v -0.504851 1.345316 0.000000
v -0.414083 1.733540 -0.222853
v -0.414084 1.733540 0.222853
v -0.548223 1.733540 0.000000
v -0.411096 1.657027 0.154829
v -0.411096 1.657027 -0.154829
v -0.831729 2.084612 -0.420918
v -0.831729 2.084612 0.420918
v -1.101162 2.084612 0.000000
v -0.772052 1.813619 -0.220336
v -0.772053 1.813619 0.220336
v -0.938337 3.411465 -0.462884
v -0.938338 3.411465 0.462884
v -1.239397 3.411169 0.000000
v -1.144110 2.660246 0.325876
v -1.144110 2.660246 -0.325876
v 0.000000 2.628564 -0.467737
v 0.000000 3.355221 0.000000
v 0.000000 1.813619 0.320897
v 0.000000 2.628564 0.467738
v 0.000000 1.657027 0.222637
v 0.000000 1.657027 -0.222636
v 0.000000 1.813619 -0.320897
v -0.000000 0.670959 -0.434436
v -0.000000 0.670959 0.434436
v 0.000000 -0.246807 -0.000000
v -0.225780 0.003193 -0.373112
v -0.225780 0.003193 0.373112
v -0.128898 1.345316 -0.315823
v -0.128898 1.345316 0.315823
v -0.139972 1.733540 -0.223910
v -0.139972 1.733540 0.223910
v -0.281148 2.084612 -0.437061
v -0.281148 2.084612 0.437061
v -0.314244 3.184412 -0.335491
v -0.314244 3.184413 0.335491
v -0.224234 1.657027 0.227158
v -0.624060 2.655262 0.476335
v -0.421120 1.813619 0.325418
v -0.624060 2.655262 -0.476335
v -0.549378 3.620241 0.000000
v -0.224234 1.657027 -0.227158
v -0.421119 1.813619 -0.325418
v -0.354678 0.670959 -0.434633
v -0.354678 0.670959 0.434633
v -0.487890 -0.246807 -0.000000
v -0.949325 4.644912 -0.302223
v -0.949325 4.644912 0.302224
v -1.142218 4.644912 0.000000
v -0.756432 4.644912 0.000000
v -1.151252 4.132074 0.316378
v -1.151252 4.132074 -0.316378
v -0.736410 4.137857 -0.321336
v -0.736411 4.137856 0.321336
v 0.654625 0.031743 -0.353977
v 0.654625 0.031743 0.353977
v 0.792727 0.060292 -0.000000
v 0.637219 0.692564 0.286313
v 0.637218 0.692564 -0.286313
v 0.381324 1.345316 -0.304732
v 0.381324 1.345316 0.304732
v 0.504851 1.345316 0.000000
v 0.414083 1.733540 -0.222853
v 0.414084 1.733540 0.222853
v 0.548223 1.733540 0.000000
v 0.411096 1.657027 0.154829
v 0.411096 1.657027 -0.154829
v 0.831729 2.084612 -0.420918
v 0.831729 2.084612 0.420918
v 1.101162 2.084612 0.000000
v 0.772052 1.813619 -0.220336
v 0.772053 1.813619 0.220336
v 0.938337 3.411465 -0.462884
v 0.938338 3.411466 0.462884
v 1.239397 3.411169 0.000000
v 1.144110 2.660246 0.325876
v 1.144110 2.660246 -0.325876
v 0.225780 0.003193 -0.373112
v 0.225780 0.003193 0.373112
v 0.128898 1.345316 -0.315823
v 0.128898 1.345316 0.315823
v 0.139972 1.733540 -0.223910
v 0.139972 1.733540 0.223910
v 0.281148 2.084612 -0.437061
v 0.281148 2.084612 0.437061
v 0.314244 3.184412 -0.335491
v 0.314244 3.184413 0.335491
v 0.224235 1.657027 0.227158
v 0.624060 2.655262 0.476335
v 0.421120 1.813619 0.325418
v 0.624060 2.655262 -0.476335
v 0.549378 3.620241 0.000000
v 0.224234 1.657027 -0.227157
v 0.421119 1.813619 -0.325418
v 0.354678 0.670959 -0.434633
v 0.354678 0.670959 0.434633
v 0.487890 -0.246807 -0.000000
v 0.949325 4.644912 -0.302223
v 0.949325 4.644912 0.302223
v 1.142218 4.644912 0.000000
v 0.756432 4.644912 0.000000
v 1.151252 4.132074 0.316378
v 1.151252 4.132074 -0.316378
v 0.736411 4.137856 -0.321336
v 0.736411 4.137857 0.321336
v -0.707953 -0.208226 -0.000000
v -0.439126 1.657027 0.000000
v -0.521806 0.676360 0.415755
v -0.681989 0.681761 -0.000000
v -0.521805 0.676360 -0.415755
v -0.622906 1.813618 -0.314826
v -0.331680 1.657027 -0.220660
v -0.824693 1.813618 0.000000
v -1.227188 4.140287 0.000000
v -1.222117 2.660246 0.000000
v -0.923088 2.660320 -0.466160
v -0.210560 1.813618 0.322310
v -0.312030 2.633918 0.469039
v -0.112117 1.657027 0.224050
v -0.331680 1.657027 0.220660
v -0.923089 2.660320 0.466160
v -0.622906 1.813618 0.314826
v -0.312030 2.633918 -0.469038
v -0.307652 3.387051 0.000000
v -0.112117 1.657027 -0.224049
v -0.210560 1.813618 -0.322310
v -0.177339 0.670959 -0.434497
v -0.177339 0.670959 0.434497
v -0.243945 -0.246807 -0.000000
v -0.949325 4.819748 0.000000
v -0.947127 4.140362 -0.436594
v -0.947128 4.140362 0.436594
v -0.658277 4.162381 0.000000
v 0.707953 -0.208226 -0.000000
v 0.439126 1.657027 0.000000
v 0.521806 0.676360 0.415755
v 0.681989 0.681761 -0.000000
v 0.521805 0.676360 -0.415755
v 0.622906 1.813618 -0.314826
v 0.331680 1.657027 -0.220660
v 0.824693 1.813618 0.000000
v 1.227188 4.140287 0.000000
v 1.222117 2.660246 0.000000
v 0.923088 2.660320 -0.466160
v 0.210560 1.813618 0.322310
v 0.312030 2.633918 0.469039
v 0.112117 1.657027 0.224050
v 0.331680 1.657027 0.220660
v 0.923089 2.660320 0.466160
v 0.622906 1.813618 0.314826
v 0.312030 2.633919 -0.469038
v 0.307652 3.387051 0.000000
v 0.112117 1.657027 -0.224049
v 0.210560 1.813618 -0.322310
v 0.177339 0.670959 -0.434497
v 0.177339 0.670959 0.434497
v 0.243945 -0.246807 0.000000
v 0.949325 4.819748 0.000000
v 0.947127 4.140362 -0.436594
v 0.947128 4.140362 0.436594
v 0.658277 4.162381 0.000000
vn -0.0724 -0.5101 -0.8571
vn -0.0955 -0.9954 0.0000
vn -0.6000 -0.8000 0.0000
vn -0.5170 -0.3928 -0.7605
vn -0.0724 -0.5101 0.8571
vn -0.5170 -0.3928 0.7605
vn -0.9044 0.0024 0.4267
vn -0.9915 -0.1297 0.0000
vn -0.9044 0.0024 -0.4267
vn -0.8552 0.2633 -0.4463
vn -0.9715 0.2371 0.0000
vn -0.9257 -0.3782 0.0000
vn -0.8005 -0.2915 -0.5236
vn -0.8552 0.2633 0.4463
vn -0.8005 -0.2915 0.5236
vn -0.3760 -0.8903 0.2569
vn -0.4196 -0.9077 0.0000
vn -0.3760 -0.8903 -0.2569
vn -0.0515 0.0464 0.9976
vn -0.4188 0.1128 0.9010
vn -0.0388 0.2280 0.9729
vn -0.3973 0.2597 0.8802
vn -0.8715 0.2050 0.4455
vn -0.9757 0.2191 0.0000
vn -0.8715 0.2050 -0.4455
vn -0.0388 0.2280 -0.9729
vn -0.0515 0.0464 -0.9976
vn -0.4188 0.1128 -0.9010
vn -0.3973 0.2597 -0.8802
vn -0.0119 -0.4498 -0.8930
vn -0.2256 -0.7095 -0.6675
vn -0.1952 -0.7081 -0.6786
vn -0.0173 -0.6039 -0.7969
vn -0.4579 -0.8141 -0.3572
vn -0.7382 -0.4316 -0.5183
vn -0.3044 -0.3292 -0.8938
vn -0.0243 -0.2358 -0.9715
vn -0.2930 0.0295 -0.9556
vn -0.0109 0.1347 -0.9908
vn -0.5311 -0.8473 0.0000
vn -0.4579 -0.8141 0.3572
vn -0.7382 -0.4316 0.5183
vn -0.8862 -0.4632 0.0000
vn -0.8072 0.0017 -0.5902
vn -1.0000 -0.0030 0.0000
vn -0.9964 0.0851 0.0000
vn -0.7935 0.1053 -0.5993
vn -0.8072 0.0017 0.5902
vn -0.7935 0.1053 0.5993
vn -0.7484 0.3819 0.5422
vn -0.8458 0.5335 0.0000
vn -0.7484 0.3819 -0.5422
vn -0.9935 -0.1133 0.0000
vn -0.8113 -0.1026 -0.5755
vn -0.8113 -0.1026 0.5755
vn -0.2647 -0.0453 -0.9633
vn 0.0585 0.0281 -0.9979
vn -0.1494 0.0439 -0.9878
vn 0.4786 0.2819 -0.8315
vn -0.0119 -0.4498 0.8930
vn 0.0176 -0.4221 0.9064
vn 0.0085 -0.5961 0.8029
vn -0.0173 -0.6039 0.7969
vn 0.0000 -0.4242 0.9055
vn 0.0000 -0.6012 0.7990
vn 0.0000 -0.2276 0.9737
vn 0.0066 -0.2265 0.9740
vn -0.0243 -0.2358 0.9715
vn 0.0445 0.0738 0.9963
vn 0.0585 0.0281 0.9979
vn 0.0000 0.0923 0.9957
vn 0.0000 0.5832 0.8123
vn 0.2152 0.5051 0.8358
vn 0.4786 0.2819 0.8315
vn 0.0075 0.2272 0.9738
vn 0.0160 0.1461 0.9891
vn -0.0109 0.1347 0.9908
vn 0.0000 0.2289 0.9734
vn 0.0000 0.1470 0.9891
vn -0.2930 0.0295 0.9556
vn -0.2256 -0.7095 0.6675
vn -0.3044 -0.3292 0.8938
vn -0.2647 -0.0453 0.9633
vn -0.1494 0.0439 0.9878
vn -0.1952 -0.7081 0.6786
vn 0.0000 -0.2276 -0.9737
vn 0.0066 -0.2265 -0.9740
vn 0.0445 0.0738 -0.9963
vn 0.0000 0.0923 -0.9957
vn 0.2152 0.5051 -0.8358
vn 0.0000 0.5832 -0.8123
vn 0.4357 0.9001 0.0000
vn 0.0000 1.0000 0.0000
vn 0.9060 0.4233 0.0000
vn 0.0000 0.2289 -0.9734
vn 0.0075 0.2272 -0.9738
vn 0.0160 0.1461 -0.9891
vn 0.0000 0.1470 -0.9891
vn 0.0176 -0.4221 -0.9064
vn 0.0000 -0.4242 -0.9055
vn 0.0085 -0.5961 -0.8029
vn 0.0000 -0.6012 -0.7990
vn 0.0000 0.0414 -0.9991
vn 0.0016 0.0410 -0.9991
vn 0.0000 -0.5107 -0.8597
vn 0.0001 -0.5108 -0.8597
vn 0.0000 -0.5107 0.8597
vn 0.0000 0.0414 0.9991
vn 0.0016 0.0410 0.9991
vn 0.0001 -0.5108 0.8597
vn 0.0000 -1.0000 0.0000
vn 0.7364 0.3972 -0.5477
vn -0.0057 0.6453 -0.7639
vn 0.8383 0.5451 0.0000
vn -0.0057 0.6453 0.7639
vn 0.7364 0.3972 0.5477
vn -0.0482 0.1468 -0.9880
vn 0.7425 0.1781 -0.6456
vn -0.0482 0.1468 0.9880
vn 0.7425 0.1781 0.6456
vn 0.9835 0.1811 0.0000
vn 0.0724 -0.5101 -0.8571
vn 0.5170 -0.3928 -0.7605
vn 0.6000 -0.8000 0.0000
vn 0.0955 -0.9954 0.0000
vn 0.9044 0.0024 -0.4267
vn 0.9915 -0.1297 0.0000
vn 0.9044 0.0024 0.4267
vn 0.5170 -0.3928 0.7605
vn 0.0724 -0.5101 0.8571
vn 0.8552 0.2633 -0.4463
vn 0.8005 -0.2915 -0.5236
vn 0.9257 -0.3782 0.0000
vn 0.9715 0.2371 0.0000
vn 0.3760 -0.8903 -0.2569
vn 0.4196 -0.9077 0.0000
vn 0.3760 -0.8903 0.2569
vn 0.8005 -0.2915 0.5236
vn 0.8552 0.2633 0.4463
vn 0.4188 0.1128 0.9010
vn 0.0515 0.0464 0.9976
vn 0.8715 0.2050 0.4455
vn 0.3973 0.2597 0.8802
vn 0.0388 0.2280 0.9729
vn 0.9757 0.2191 0.0000
vn 0.8715 0.2050 -0.4455
vn 0.0388 0.2280 -0.9729
vn 0.3973 0.2597 -0.8802
vn 0.4188 0.1128 -0.9010
vn 0.0515 0.0464 -0.9976
vn 0.0119 -0.4498 -0.8930
vn 0.0173 -0.6039 -0.7969
vn 0.1952 -0.7081 -0.6786
vn 0.2256 -0.7095 -0.6675
vn 0.0243 -0.2358 -0.9715
vn 0.3044 -0.3292 -0.8938
vn 0.7382 -0.4316 -0.5183
vn 0.4579 -0.8141 -0.3572
vn 0.0109 0.1347 -0.9908
vn 0.2930 0.0295 -0.9556
vn 0.5311 -0.8473 0.0000
vn 0.8862 -0.4632 0.0000
vn 0.7382 -0.4316 0.5183
vn 0.4579 -0.8141 0.3572
vn 0.8072 0.0017 -0.5902
vn 0.7935 0.1053 -0.5993
vn 0.9964 0.0851 0.0000
vn 1.0000 -0.0030 0.0000
vn 0.7484 0.3819 -0.5422
vn 0.8458 0.5335 0.0000
vn 0.7484 0.3819 0.5422
vn 0.7935 0.1053 0.5993
vn 0.8072 0.0017 0.5902
vn 0.8113 -0.1026 -0.5755
vn 0.9935 -0.1133 0.0000
vn 0.8113 -0.1026 0.5755
vn -0.0585 0.0281 -0.9979
vn 0.2647 -0.0453 -0.9633
vn -0.4786 0.2819 -0.8315
vn 0.1494 0.0439 -0.9878
vn 0.0119 -0.4498 0.8930
vn 0.0173 -0.6039 0.7969
vn -0.0085 -0.5961 0.8029
vn -0.0176 -0.4221 0.9064
vn 0.0243 -0.2358 0.9715
vn -0.0066 -0.2265 0.9740
vn -0.0585 0.0281 0.9979
vn -0.0445 0.0738 0.9963
vn -0.4786 0.2819 0.8315
vn -0.2152 0.5051 0.8358
vn 0.0109 0.1347 0.9908
vn -0.0160 0.1461 0.9891
vn -0.0075 0.2272 0.9738
vn 0.2930 0.0295 0.9556
vn 0.2256 -0.7095 0.6675
vn 0.2647 -0.0453 0.9633
vn 0.3044 -0.3292 0.8938
vn 0.1494 0.0439 0.9878
vn 0.1952 -0.7081 0.6786
vn -0.0445 0.0738 -0.9963
vn -0.0066 -0.2265 -0.9740
vn -0.2152 0.5051 -0.8358
vn -0.4357 0.9001 0.0000
vn -0.9060 0.4233 0.0000
vn -0.0160 0.1461 -0.9891
vn -0.0075 0.2272 -0.9738
vn -0.0176 -0.4221 -0.9064
vn -0.0085 -0.5961 -0.8029
vn -0.0016 0.0410 -0.9991
vn -0.0001 -0.5108 -0.8597
vn -0.0001 -0.5108 0.8597
vn -0.0016 0.0410 0.9991
vn -0.7364 0.3972 -0.5477
vn -0.8383 0.5451 0.0000
vn 0.0057 0.6453 -0.7639
vn -0.7364 0.3972 0.5477
vn 0.0057 0.6453 0.7639
vn -0.7425 0.1781 -0.6456
vn 0.0482 0.1468 -0.9880
vn 0.0482 0.1468 0.9880
vn -0.7425 0.1781 0.6456
vn -0.9835 0.1811 0.0000
usemtl Material
s 1
f 11//1 111//2 171//3 59//4
f 111//2 12//5 60//6 171//3
f 171//3 60//6 1//7 61//8
f 59//4 171//3 61//8 2//9
f 4//10 66//11 172//12 71//13
f 66//11 3//14 70//15 172//12
f 172//12 70//15 6//16 69//17
f 71//13 172//12 69//17 5//18
f 12//5 110//19 173//20 60//6
f 110//19 14//21 65//22 173//20
f 173//20 65//22 3//14 62//23
f 60//6 173//20 62//23 1//7
f 1//7 62//23 174//24 61//8
f 62//23 3//14 66//11 174//24
f 174//24 66//11 4//10 63//25
f 61//8 174//24 63//25 2//9
f 13//26 109//27 175//28 64//29
f 109//27 11//1 59//4 175//28
f 175//28 59//4 2//9 63//25
f 64//29 175//28 63//25 4//10
f 15//30 67//31 176//32 108//33
f 67//31 5//18 75//34 176//32
f 176//32 75//34 7//35 72//36
f 108//33 176//32 72//36 17//37
f 13//26 64//29 177//38 107//39
f 64//29 4//10 71//13 177//38
f 177//38 71//13 5//18 67//31
f 107//39 177//38 67//31 15//30
f 5//18 69//17 178//40 75//34
f 69//17 6//16 76//41 178//40
f 178//40 76//41 8//42 74//43
f 75//34 178//40 74//43 7//35
f 9//44 79//45 179//46 117//47
f 79//45 10//48 116//49 179//46
f 179//46 116//49 24//50 114//51
f 117//47 179//46 114//51 22//52
f 7//35 74//43 180//53 81//54
f 74//43 8//42 80//55 180//53
f 180//53 80//55 10//48 79//45
f 81//54 180//53 79//45 9//44
f 17//37 72//36 181//56 105//57
f 72//36 7//35 81//54 181//56
f 181//56 81//54 9//44 77//58
f 105//57 181//56 77//58 19//59
f 16//60 97//61 182//62 104//63
f 97//61 40//64 84//65 182//62
f 182//62 84//65 42//66 99//67
f 104//63 182//62 99//67 18//68
f 18//68 99//67 183//69 103//70
f 99//67 42//66 85//71 183//69
f 183//69 85//71 44//72 101//73
f 103//70 183//69 101//73 20//74
f 14//21 95//75 184//76 102//77
f 95//75 38//78 86//79 184//76
f 184//76 86//79 40//64 97//61
f 102//77 184//76 97//61 16//60
f 3//14 65//22 185//80 70//15
f 65//22 14//21 102//77 185//80
f 185//80 102//77 16//60 68//81
f 70//15 185//80 68//81 6//16
f 8//42 73//82 186//83 80//55
f 73//82 18//68 103//70 186//83
f 186//83 103//70 20//74 78//84
f 80//55 186//83 78//84 10//48
f 6//16 68//81 187//85 76//41
f 68//81 16//60 104//63 187//85
f 187//85 104//63 18//68 73//82
f 76//41 187//85 73//82 8//42
f 41//86 98//87 188//88 82//89
f 98//87 17//37 105//57 188//88
f 188//88 105//57 19//59 100//90
f 82//89 188//88 100//90 43//91
f 43//91 100//90 189//92 83//93
f 100//90 19//59 106//94 189//92
f 189//92 106//94 20//74 101//73
f 83//93 189//92 101//73 44//72
f 37//95 94//96 190//97 87//98
f 94//96 13//26 107//39 190//97
f 190//97 107//39 15//30 96//99
f 87//98 190//97 96//99 39//100
f 39//100 96//99 191//101 88//102
f 96//99 15//30 108//33 191//101
f 191//101 108//33 17//37 98//87
f 88//102 191//101 98//87 41//86
f 37//95 89//103 192//104 94//96
f 89//103 35//105 92//106 192//104
f 192//104 92//106 11//1 109//27
f 94//96 192//104 109//27 13//26
f 36//107 90//108 193//109 93//110
f 90//108 38//78 95//75 193//109
f 193//109 95//75 14//21 110//19
f 93//110 193//109 110//19 12//5
f 35//105 91//111 194//111 92//106
f 91//111 36//107 93//110 194//111
f 194//111 93//110 12//5 111//2
f 92//106 194//111 111//2 11//1
f 21//112 112//113 195//93 115//114
f 112//113 22//52 114//51 195//93
f 195//93 114//51 24//50 113//115
f 115//114 195//93 113//115 23//116
f 19//59 77//58 196//117 118//118
f 77//58 9//44 117//47 196//117
f 196//117 117//47 22//52 112//113
f 118//118 196//117 112//113 21//112
f 10//48 78//84 197//119 116//49
f 78//84 20//74 119//120 197//119
f 197//119 119//120 23//116 113//115
f 116//49 197//119 113//115 24//50
f 20//74 106//94 198//121 119//120
f 106//94 19//59 118//118 198//121
f 198//121 118//118 21//112 115//114
f 119//120 198//121 115//114 23//116
f 45//122 120//123 199//124 162//125
f 120//123 26//126 122//127 199//124
f 199//124 122//127 25//128 121//129
f 162//125 199//124 121//129 46//130
f 28//131 132//132 200//133 127//134
f 132//132 29//135 130//136 200//133
f 200//133 130//136 30//137 131//138
f 127//134 200//133 131//138 27//139
f 46//130 121//129 201//140 161//141
f 121//129 25//128 123//142 201//140
f 201//140 123//142 27//139 126//143
f 161//141 201//140 126//143 48//144
f 25//128 122//127 202//145 123//142
f 122//127 26//126 124//146 202//145
f 202//145 124//146 28//131 127//134
f 123//142 202//145 127//134 27//139
f 47//147 125//148 203//149 160//150
f 125//148 28//131 124//146 203//149
f 203//149 124//146 26//126 120//123
f 160//150 203//149 120//123 45//122
f 49//151 159//152 204//153 128//154
f 159//152 51//155 133//156 204//153
f 204//153 133//156 31//157 136//158
f 128//154 204//153 136//158 29//135
f 47//147 158//159 205//160 125//148
f 158//159 49//151 128//154 205//160
f 205//160 128//154 29//135 132//132
f 125//148 205//160 132//132 28//131
f 29//135 136//158 206//161 130//136
f 136//158 31//157 135//162 206//161
f 206//161 135//162 32//163 137//164
f 130//136 206//161 137//164 30//137
f 33//165 168//166 207//167 140//168
f 168//166 56//169 165//170 207//167
f 207//167 165//170 58//171 167//172
f 140//168 207//167 167//172 34//173
f 31//157 142//174 208//175 135//162
f 142//174 33//165 140//168 208//175
f 208//175 140//168 34//173 141//176
f 135//162 208//175 141//176 32//163
f 51//155 156//177 209//178 133//156
f 156//177 53//179 138//180 209//178
f 209//178 138//180 33//165 142//174
f 133//156 209//178 142//174 31//157
f 50//181 155//182 210//183 148//184
f 155//182 52//185 150//186 210//183
f 210//183 150//186 42//66 84//65
f 148//184 210//183 84//65 40//64
f 52//185 154//187 211//188 150//186
f 154//187 54//189 152//190 211//188
f 211//188 152//190 44//72 85//71
f 150//186 211//188 85//71 42//66
f 48//144 153//191 212//192 146//193
f 153//191 50//181 148//184 212//192
f 212//192 148//184 40//64 86//79
f 146//193 212//192 86//79 38//78
f 27//139 131//138 213//194 126//143
f 131//138 30//137 129//195 213//194
f 213//194 129//195 50//181 153//191
f 126//143 213//194 153//191 48//144
f 32//163 141//176 214//196 134//197
f 141//176 34//173 139//198 214//196
f 214//196 139//198 54//189 154//187
f 134//197 214//196 154//187 52//185
f 30//137 137//164 215//199 129//195
f 137//164 32//163 134//197 215//199
f 215//199 134//197 52//185 155//182
f 129//195 215//199 155//182 50//181
f 41//86 82//89 216//200 149//201
f 82//89 43//91 151//202 216//200
f 216//200 151//202 53//179 156//177
f 149//201 216//200 156//177 51//155
f 43//91 83//93 217//203 151//202
f 83//93 44//72 152//190 217//203
f 217//203 152//190 54//189 157//204
f 151//202 217//203 157//204 53//179
f 37//95 87//98 218//205 145//206
f 87//98 39//100 147//207 218//205
f 218//205 147//207 49//151 158//159
f 145//206 218//205 158//159 47//147
f 39//100 88//102 219//208 147//207
f 88//102 41//86 149//201 219//208
f 219//208 149//201 51//155 159//152
f 147//207 219//208 159//152 49//151
f 37//95 145//206 220//209 89//103
f 145//206 47//147 160//150 220//209
f 220//209 160//150 45//122 143//210
f 89//103 220//209 143//210 35//105
f 36//107 144//211 221//212 90//108
f 144//211 46//130 161//141 221//212
f 221//212 161//141 48//144 146//193
f 90//108 221//212 146//193 38//78
f 35//105 143//210 222//111 91//111
f 143//210 45//122 162//125 222//111
f 222//111 162//125 46//130 144//211
f 91//111 222//111 144//211 36//107
f 55//213 166//214 223//93 163//215
f 166//214 57//216 164//217 223//93
f 223//93 164//217 58//171 165//170
f 163//215 223//93 165//170 56//169
f 53//179 169//218 224//219 138//180
f 169//218 55//213 163//215 224//219
f 224//219 163//215 56//169 168//166
f 138//180 224//219 168//166 33//165
f 34//173 167//172 225//220 139//198
f 167//172 58//171 164//217 225//220
f 225//220 164//217 57//216 170//221
f 139//198 225//220 170//221 54//189
f 54//189 170//221 226//222 157//204
f 170//221 57//216 166//214 226//222
f 226//222 166//214 55//213 169//218
f 157//204 226//222 169//218 53//179
